<?xml version="1.0" standalone="no"?>
<!DOCTYPE svg PUBLIC "-//W3C//DTD SVG 20010904//EN"
 "http://www.w3.org/TR/2001/REC-SVG-20010904/DTD/svg10.dtd">
<svg version="1.0" xmlns="http://www.w3.org/2000/svg"
 width="256.000000pt" height="256.000000pt" viewBox="0 0 256.000000 256.000000"
 preserveAspectRatio="xMidYMid meet">
<metadata>
Created by potrace 1.14, written by Peter Selinger 2001-2017
</metadata>
<g transform="translate(0.000000,256.000000) scale(0.100000,-0.100000)"
fill="#000000" stroke="none">
<path d="M1137 2454 c-1 -1 -18 -4 -37 -7 -72 -11 -97 -18 -170 -44 -140 -50
-265 -140 -365 -265 -58 -72 -128 -222 -149 -323 -6 -26 -14 -33 -64 -49 -107
-35 -232 -141 -270 -228 -47 -110 -44 -97 -47 -213 -3 -100 13 -170 57 -246
38 -67 127 -150 196 -184 102 -50 124 -52 631 -53 260 0 491 -4 514 -7 91 -15
190 -83 228 -157 10 -20 31 -50 46 -66 121 -129 337 -65 369 108 8 42 50 123
80 156 16 17 56 49 89 71 81 56 130 106 180 183 35 55 74 138 81 175 1 6 5 24
9 40 10 45 13 225 3 231 -4 3 -8 16 -8 29 0 24 -38 136 -49 145 -3 3 -15 22
-26 44 -19 36 -114 141 -162 178 -54 41 -156 87 -233 104 -19 4 -38 9 -42 10
-5 1 -35 2 -67 3 -49 1 -61 4 -66 20 -17 55 -261 261 -308 261 -9 0 -17 3 -19
8 -4 9 -116 47 -187 63 -46 10 -206 20 -214 13z"/>
<path d="M1565 473 c-67 -14 -114 -55 -142 -120 -54 -130 80 -280 217 -243 61
16 125 83 135 139 17 101 -35 188 -127 216 -29 8 -54 14 -57 14 -3 -1 -15 -3
-26 -6z"/>
</g>
</svg>
